<?xml version="1.0" encoding="utf-8"?>
<!-- Generator: Adobe Illustrator 24.1.0, SVG Export Plug-In . SVG Version: 6.00 Build 0)  -->
<svg version="1.1" id="Layer_1" xmlns="http://www.w3.org/2000/svg" xmlns:xlink="http://www.w3.org/1999/xlink" x="0px" y="0px"
	 viewBox="0 0 70 70" style="enable-background:new 0 0 70 70;" xml:space="preserve">
<style type="text/css">
	.st0{fill-rule:evenodd;clip-rule:evenodd;fill:#E6E6E5;stroke:#A3A3A2;stroke-width:2;stroke-miterlimit:10;}
	.st1{fill-rule:evenodd;clip-rule:evenodd;fill:#A3A3A2;}
</style>
<path class="st0" d="M64.78,38.67v-0.29c-4.21-5.26-10.51-4.21-10.51-4.21h-4.38c-0.49-0.67-0.87-1.05-0.87-1.05
	c-4.21-4.21-8.41-3.15-8.41-3.15c-1.74,0-3.15,1.41-3.15,3.15c0,1.74,2.1,3.19,3.15,3.15c5.52,1.41,5.26,7.36,5.26,7.36H12.21
	C6.4,43.63,1.7,38.92,1.7,33.12c0-5.81,4.71-10.51,10.51-10.51c0.73,0,1.45,0.08,2.14,0.22c0.44-10.06,8.71-18.09,18.88-18.09
	c8.01,0,14.84,4.98,17.6,12.01c1.1-0.28,2.24-0.45,3.42-0.45c7.55,0,13.67,6.12,13.67,13.67C67.93,33.27,66.74,36.3,64.78,38.67z"/>
<path class="st1" d="M50.53,42.48c0-3.03-2.39-5.48-5.33-5.48c0-0.78,0-0.78,0-1.57c3.79,0,6.86,3.15,6.86,7.04
	s-3.07,7.04-6.86,7.04H21.57v-1.57h23.62C48.14,47.95,50.53,45.5,50.53,42.48z"/>
<path class="st1" d="M55.1,61.26c0,3.89-3.07,7.04-6.86,7.04c0-0.78,0-0.78,0-1.57c2.95,0,5.33-2.45,5.33-5.48
	c0-3.03-2.39-5.48-5.33-5.48H24.62v-1.57h23.62C52.03,54.22,55.1,57.37,55.1,61.26z"/>
<path class="st1" d="M32.24,51.09h23.62c2.95,0,5.33-2.45,5.33-5.48s-2.39-5.48-5.33-5.48c0-0.78,0-0.78,0-1.57
	c3.79,0,6.86,3.15,6.86,7.04s-3.07,7.04-6.86,7.04H32.24V51.09z"/>
</svg>
