<?xml version="1.0" encoding="utf-8"?>
<!-- Generator: Adobe Illustrator 24.1.0, SVG Export Plug-In . SVG Version: 6.00 Build 0)  -->
<svg version="1.1" id="Layer_1" xmlns="http://www.w3.org/2000/svg" xmlns:xlink="http://www.w3.org/1999/xlink" x="0px" y="0px"
	 viewBox="0 0 70 70" style="enable-background:new 0 0 70 70;" xml:space="preserve">
<style type="text/css">
	.st0{fill-rule:evenodd;clip-rule:evenodd;fill:#E6E6E6;stroke:#A3A3A3;stroke-width:3;stroke-miterlimit:10;}
	.st1{fill-rule:evenodd;clip-rule:evenodd;fill:#FF8833;}
	.st2{fill-rule:evenodd;clip-rule:evenodd;fill:#FFB92F;}
</style>
<path class="st0" d="M57.9,57.5L57.9,57.5l-33.5,0.1c-3.9,0-7.3-2.8-8-6.5h3.9l0,0h8.2l0,0c0.2,0,0.2,0,0.4,0c4.7,0,8.6-3.8,8.6-8.6
	s-3.8-8.6-8.6-8.6c-0.1,0-0.2,0-0.3,0c2.6-3.9,7.1-6.5,12.2-6.5c6.2,0,11.5,3.8,13.6,9.3c0.8-0.2,1.7-0.3,2.7-0.3
	c5.9,0,10.6,4.7,10.6,10.6C67.7,52.6,63.3,57.1,57.9,57.5z"/>
<path class="st1" d="M53,30.5c-1.7-1.9-3.8-3.4-6.2-4.3c-2.3-5.2-7.3-9-13.4-9.3C26.2,16.5,20,21,17.8,27.5c-1.7,0-3.3,0.5-4.8,1.2
	c-1.9-1.4-4.2-2.7-3.8-3.9c0.7-2,7.8,0,9-1.8c1.1-1.7-3.6-7.4-2-8.9c1.6-1.5,6.7,3.9,8.6,2.9c2-1,0.7-8.2,2.7-8.7
	c2-0.4,3.8,6.8,5.9,6.9c2.1,0.1,4.7-6.9,6.8-6.1c2,0.7-0.1,7.8,1.7,8.9c1.7,1.1,7.4-3.6,8.9-2c1.5,1.6-3.9,6.7-3,8.5
	c1,2,8.2,0.7,8.7,2.9C56.7,28.5,54.8,29.5,53,30.5z"/>
<path class="st2" d="M19.6,26.9c2.2-6.1,8.5-9.4,15.1-8.3c4.3,0.7,7.9,3.3,9.9,6.9C43.3,25.1,42,25,40.6,25c-5.5,0-9.2,1.6-12.2,5.7
	C26.7,28.2,22.7,27.2,19.6,26.9z"/>
<path class="st0" d="M18.8,29.2c5.2,0,9.2,3.1,10.2,6.3c0.5-0.1,1-0.2,1.6-0.2c4.1,0,7.4,3.3,7.4,7.4s-3.3,7.4-7.4,7.4
	c-0.2,0-0.3,0-0.4,0l0,0h-4.9l0,0H24l0,0h-2.7h-6h-0.3H8.3c-3.2,0-6.1-2.8-6.1-6.1s2.9-6.1,6.1-6.1c0.3,0,0.6,0,1,0.1
	C9.9,32.1,13.8,29.2,18.8,29.2z"/>
</svg>
