<svg xmlns="http://www.w3.org/2000/svg" xmlns:xlink="http://www.w3.org/1999/xlink" version="1.1" x="0px" y="0px" viewBox="0 0 100 125" enable-background="new 0 0 100 100" xml:space="preserve"><path fill-rule="evenodd" clip-rule="evenodd" fill="#000000" d="M78,79.642v0.051H37c-4.837,0-8.86-3.438-9.787-8H32l0,0h10V71.66  c0.166,0.008,0.332,0.021,0.5,0.021c5.793,0,10.488-4.696,10.488-10.488c0-5.793-4.695-10.488-10.488-10.488  c-0.148,0-0.293,0.016-0.44,0.022c3.221-4.834,8.693-8.034,14.94-8.034c7.619,0,14.117,4.741,16.744,11.427  c1.043-0.269,2.13-0.427,3.256-0.427c7.18,0,13,5.82,13,13C90,73.534,84.711,79.13,78,79.642z M71.985,47.478  c-2.056-2.329-4.637-4.175-7.568-5.348c-2.774-6.374-8.939-10.994-16.353-11.408c-8.752-0.489-16.431,5.035-19.07,12.971  c-2.084,0.001-4.087,0.553-5.874,1.505c-2.325-1.656-5.114-3.329-4.639-4.795c0.81-2.491,9.481,0.034,10.951-2.208  c1.405-2.143-4.421-9.068-2.421-10.857c2.003-1.791,8.237,4.771,10.524,3.613c2.367-1.198,0.796-10.091,3.334-10.619  c2.546-0.529,4.643,8.262,7.223,8.399c2.636,0.14,5.756-8.36,8.28-7.533c2.464,0.807-0.088,9.471,2.131,10.925  c2.145,1.405,9.07-4.421,10.859-2.419c1.771,1.979-4.805,8.186-3.653,10.445c1.23,2.415,10.144,0.897,10.676,3.49  C76.665,45,74.285,46.232,71.985,47.478z M31.021,43.819c2.743-7.467,10.462-12.208,18.624-10.919  c5.314,0.839,9.653,4.056,12.125,8.389c-1.531-0.375-3.123-0.596-4.77-0.596c-6.721,0-12.644,3.328-16.263,8.414  C38.493,45.964,34.849,44.257,31.021,43.819z M29,45.692c5.974,0,10.479,3.641,11.675,7.194c0.589-0.129,1.198-0.201,1.825-0.201  c4.698,0,8.507,3.809,8.507,8.507c0,4.697-3.809,8.506-8.507,8.506c-0.169,0-0.333-0.021-0.5-0.031v0.025h-5.623l0,0H35l0,0h-3.117  H25h-0.35H17c-3.729,0-7-3.232-7-7s3.271-7,7-7c0.376,0,0.744,0.041,1.107,0.104C18.812,49.067,23.283,45.692,29,45.692z"/></svg>