<svg xmlns="http://www.w3.org/2000/svg" xmlns:xlink="http://www.w3.org/1999/xlink" version="1.1" x="0px" y="0px" viewBox="0 0 100 125" enable-background="new 0 0 100 100" xml:space="preserve"><path fill-rule="evenodd" clip-rule="evenodd" fill="#000000" d="M77.418,79.867v0.051h-41c-5.522,0-10-4.478-10-10  c0-5.523,4.478-10,10-10c0.699,0,1.381,0.072,2.04,0.209c0.417-9.571,8.286-17.209,17.96-17.209c7.619,0,14.117,4.741,16.744,11.427  c1.043-0.269,2.129-0.427,3.256-0.427c7.18,0,13,5.82,13,13C89.418,73.76,84.129,79.355,77.418,79.867z M43.062,33.125  c5.099,0.805,9.298,3.802,11.814,7.871c-9.325,0.713-16.843,7.812-18.214,16.934c-0.083-0.001-0.162-0.012-0.245-0.012  c-3.316,0-6.317,1.345-8.489,3.52c-3.414-3.687-5.177-8.827-4.332-14.174C25.064,37.989,33.779,31.659,43.062,33.125z   M57.152,40.955c-2.714-5.056-7.658-8.839-13.764-9.804c-10.365-1.638-20.095,5.436-21.733,15.801  c-0.958,6.058,1.076,11.886,4.988,16.021c-0.675,0.949-1.215,1.998-1.594,3.125c-3.034,0.591-7.672,3.135-8.888,1.462  c-1.58-2.173,5.576-7.715,4.654-10.109c-0.953-2.476-9.959-1.809-10.229-4.387c-0.272-2.615,8.69-3.843,9.098-6.423  c0.404-2.553-7.754-6.458-6.706-8.838c1.056-2.397,9.43,0.989,11.118-1.094c1.614-1.991-3.485-9.468-1.314-11.046  c2.172-1.58,7.714,5.576,10.107,4.655c2.476-0.953,1.808-9.96,4.386-10.229c2.587-0.27,3.786,8.688,6.34,9.084  c2.608,0.405,6.568-7.738,8.998-6.66c2.369,1.051-1.043,9.414,1.018,11.084c1.992,1.614,9.471-3.484,11.049-1.312  c1.361,1.872-3.908,6.301-4.674,8.973C59.077,41.088,58.123,40.99,57.152,40.955z"/></svg>