<?xml version="1.0" encoding="utf-8"?>
<!-- Generator: Adobe Illustrator 24.1.0, SVG Export Plug-In . SVG Version: 6.00 Build 0)  -->
<svg version="1.1" id="Layer_1" xmlns="http://www.w3.org/2000/svg" xmlns:xlink="http://www.w3.org/1999/xlink" x="0px" y="0px"
	 viewBox="0 0 70 70" style="enable-background:new 0 0 70 70;" xml:space="preserve">
<style type="text/css">
	.st0{fill-rule:evenodd;clip-rule:evenodd;fill:#FFFFFF;}
	.st1{fill-rule:evenodd;clip-rule:evenodd;fill:#FFB92F;}
	.st2{fill-rule:evenodd;clip-rule:evenodd;fill:#E6E6E6;stroke:#A3A3A3;stroke-width:3;stroke-miterlimit:10;}
	.st3{fill-rule:evenodd;clip-rule:evenodd;fill:#FF8833;}
</style>
<path class="st0" d="M26.2,18.2c-8.6,0-15.7,7-15.7,15.7s7,15.7,15.7,15.7s15.7-7,15.7-15.7C41.8,25.2,34.8,18.2,26.2,18.2z"/>
<path class="st1" d="M26.2,47.9c-7.7,0-14.1-6.3-14.1-14.1s6.3-14.1,14.1-14.1s14.1,6.3,14.1,14.1S34,47.9,26.2,47.9z"/>
<path class="st2" d="M56.7,58.5L56.7,58.5L23,58.6c-4.5,0-8.2-3.7-8.2-8.2s3.7-8.2,8.2-8.2c0.6,0,1.2,0.1,1.6,0.2
	c0.3-7.9,6.8-14.2,14.8-14.2c6.3,0,11.6,3.9,13.8,9.4c0.8-0.2,1.7-0.3,2.7-0.3c5.9,0,10.7,4.8,10.7,10.7
	C66.6,53.5,62.3,58.1,56.7,58.5z"/>
<path class="st3" d="M40,26.5c-2.2-4.2-6.3-7.2-11.4-8.1c-8.5-1.4-16.5,4.4-17.9,13c-0.8,5,0.9,9.8,4.1,13.2c-0.6,0.7-1,1.6-1.3,2.6
	c-2.5,0.5-6.3,2.6-7.3,1.2c-1.3-1.8,4.6-6.3,3.9-8.3c-0.8-2.1-8.2-1.5-8.4-3.6c-0.2-2.1,7.2-3.1,7.5-5.3c0.3-2.1-6.4-5.4-5.5-7.2
	c0.9-2,7.7,0.8,9.1-0.9c1.3-1.6-2.9-7.8-1.1-9.1c1.8-1.3,6.3,4.6,8.3,3.9c2.1-0.8,1.5-8.2,3.6-8.4c2.1-0.2,3.1,7.2,5.2,7.5
	c2.1,0.3,5.4-6.3,7.4-5.5c2,0.9-0.8,7.7,0.8,9.1c1.6,1.3,7.8-2.9,9.1-1.1c1.2,1.6-3.2,5.2-3.9,7.4C41.6,26.6,40.8,26.5,40,26.5z"/>
</svg>
