<svg xmlns="http://www.w3.org/2000/svg" xmlns:xlink="http://www.w3.org/1999/xlink" version="1.1" x="0px" y="0px" viewBox="0 0 100 125" enable-background="new 0 0 100 100" xml:space="preserve"><path fill-rule="evenodd" clip-rule="evenodd" fill="#000000" d="M69.5,60.265v0.051h-41c-5.523,0-10-4.478-10-10s4.477-10,10-10  c0.699,0,1.381,0.073,2.04,0.209c0.417-9.571,8.286-17.209,17.96-17.209c7.619,0,14.117,4.741,16.744,11.427  c1.043-0.269,2.129-0.427,3.256-0.427c7.18,0,13,5.82,13,13C81.5,54.157,76.211,59.753,69.5,60.265z M29.75,61.918  c0.232,3.599,0.427,5.261-0.402,6.696c-0.829,1.435-2.663,1.926-4.098,1.098c-1.435-0.828-1.926-2.663-1.098-4.098  C24.98,64.179,26.518,63.517,29.75,61.918z M36.3,68.697c0.186,2.879,0.341,4.209-0.322,5.356c-0.663,1.148-2.13,1.542-3.278,0.879  c-1.148-0.662-1.542-2.131-0.878-3.278C32.484,70.507,33.714,69.976,36.3,68.697z M45.75,61.918  c0.232,3.599,0.427,5.261-0.402,6.696c-0.829,1.435-2.663,1.926-4.098,1.098c-1.435-0.828-1.926-2.663-1.098-4.098  C40.98,64.179,42.518,63.517,45.75,61.918z M52.525,69.308c0.209,3.238,0.383,4.735-0.361,6.026  c-0.746,1.292-2.397,1.734-3.689,0.988c-1.292-0.745-1.734-2.396-0.988-3.688C48.232,71.343,49.616,70.746,52.525,69.308z   M62.75,61.918c0.232,3.599,0.427,5.261-0.402,6.696c-0.828,1.435-2.662,1.926-4.098,1.098c-1.435-0.828-1.926-2.663-1.098-4.098  C57.98,64.179,59.518,63.517,62.75,61.918z M71.75,63.918c0.232,3.599,0.427,5.261-0.402,6.696  c-0.828,1.435-2.662,1.927-4.098,1.098c-1.435-0.828-1.926-2.663-1.098-4.098C66.98,66.179,68.518,65.517,71.75,63.918z"/></svg>