<svg xmlns="http://www.w3.org/2000/svg" xmlns:xlink="http://www.w3.org/1999/xlink" version="1.1" x="0px" y="0px" viewBox="0 0 100 125" enable-background="new 0 0 100 100" xml:space="preserve"><path fill-rule="evenodd" clip-rule="evenodd" fill="#000000" d="M69.5,61.455v0.051h-9v-2h9v-0.051c5.605-0.506,10-5.212,10-10.949  c0-6.075-4.925-11-11-11c-1.616,0-3.146,0.357-4.528,0.983c-1.785-6.889-8.024-11.984-15.472-11.984c-8.836,0-16,7.164-16,16  c0,0.741,0,0,0,1c-3,0-2.472,0-4,0c-4.418,0-8,3.582-8,8c0,4.418,3.582,8,8,8h11v2h-11c-5.522,0-10-4.478-10-10  c0-5.523,4.478-10,10-10c0.699,0,1.382,0.073,2.04,0.209c0.417-9.571,8.286-17.209,17.96-17.209c7.619,0,14.117,4.741,16.744,11.427  c1.043-0.269,2.13-0.427,3.256-0.427c7.18,0,13,5.82,13,13C81.5,55.348,76.211,60.943,69.5,61.455z M28.58,66.816l0.323-0.61  l1.119,0.704l0.087-1.572l0.56,0.353l-0.086,1.572l1.119,0.705l-0.323,0.61l-1.119-0.705l-1.207,0.868l-0.56-0.353l1.206-0.868  L28.58,66.816z M29.053,70.27l1.207,0.869l1.119-0.705l0.323,0.61l-1.119,0.704l0.086,1.573l-0.56,0.353l-0.087-1.573l-1.119,0.704  l-0.323-0.609l1.119-0.705l-1.206-0.868L29.053,70.27z M33.177,71.972H33.5h0.323v1.409l1.293,0.705v0.704l-1.293-0.704v1.408  h-0.646v-1.408l-1.293,0.704v-0.704l1.293-0.705V71.972z M31.237,69.506c0-1.362,1.014-2.467,2.263-2.467  c1.25,0,2.263,1.104,2.263,2.467c0,1.361-1.013,2.466-2.263,2.466C32.251,71.972,31.237,70.867,31.237,69.506z M33.5,71.232  c0.875,0,1.584-0.773,1.584-1.727s-0.709-1.727-1.584-1.727s-1.584,0.773-1.584,1.727S32.625,71.232,33.5,71.232z M33.177,65.631  l-1.293-0.705v-0.705l1.293,0.705v-1.409h0.646v1.409l1.293-0.705v0.705l-1.293,0.705v1.408H33.5h-0.323V65.631z M37.947,68.741  l-1.206-0.868l-1.12,0.705l-0.323-0.61l1.12-0.705l-0.087-1.572l0.56-0.353l0.087,1.572l1.12-0.704l0.323,0.61l-1.12,0.704  l1.206,0.868L37.947,68.741z M35.621,70.434l1.12,0.705l1.206-0.869l0.56,0.353l-1.206,0.868l1.12,0.705l-0.323,0.609l-1.12-0.704  l-0.087,1.573l-0.56-0.353l0.087-1.573l-1.12-0.704L35.621,70.434z M41.628,58.807l0.55-0.952l1.905,1.1l0.147-2.455l0.953,0.55  l-0.147,2.455l1.905,1.101l-0.551,0.952l-1.905-1.1l-2.052,1.355l-0.953-0.551l2.053-1.355L41.628,58.807z M42.434,64.199  l2.052,1.355l1.905-1.101l0.551,0.952l-1.905,1.101l0.147,2.455l-0.953,0.55l-0.147-2.455l-1.905,1.1l-0.55-0.952l1.905-1.1  l-2.053-1.355L42.434,64.199z M49.45,66.855H50h0.55v2.2l2.2,1.101v1.1l-2.2-1.1v2.199h-1.1v-2.199l-2.2,1.1v-1.1l2.2-1.101V66.855z   M46.15,63.006c0-2.127,1.724-3.85,3.85-3.85c2.127,0,3.851,1.723,3.851,3.85c0,2.126-1.724,3.85-3.851,3.85  C47.874,66.855,46.15,65.132,46.15,63.006z M50,65.701c1.488,0,2.695-1.207,2.695-2.695S51.488,60.311,50,60.311  s-2.695,1.207-2.695,2.695S48.512,65.701,50,65.701z M49.45,56.955l-2.2-1.1v-1.1l2.2,1.1v-2.199h1.1v2.199l2.2-1.1v1.1l-2.2,1.1  v2.201H50h-0.55V56.955z M57.567,61.812l-2.053-1.355l-1.905,1.1l-0.55-0.952l1.905-1.101l-0.147-2.455l0.952-0.55l0.147,2.455  l1.905-1.1l0.55,0.952l-1.905,1.1l2.053,1.355L57.567,61.812z M53.609,64.454l1.905,1.101l2.053-1.355l0.952,0.55l-2.053,1.355  l1.905,1.1l-0.55,0.952l-1.905-1.1l-0.147,2.455l-0.952-0.55l0.147-2.455l-1.905-1.101L53.609,64.454z M61.58,66.816l0.323-0.61  l1.119,0.704l0.087-1.572l0.56,0.353l-0.086,1.572l1.119,0.705l-0.323,0.61l-1.119-0.705l-1.207,0.868l-0.56-0.353l1.206-0.868  L61.58,66.816z M62.053,70.27l1.207,0.869l1.119-0.705l0.323,0.61l-1.119,0.704l0.086,1.573l-0.56,0.353l-0.087-1.573l-1.119,0.704  l-0.323-0.609l1.119-0.705l-1.206-0.868L62.053,70.27z M66.177,71.972H66.5h0.323v1.409l1.293,0.705v0.704l-1.293-0.704v1.408  h-0.646v-1.408l-1.293,0.704v-0.704l1.293-0.705V71.972z M64.237,69.506c0-1.362,1.014-2.467,2.263-2.467  c1.25,0,2.263,1.104,2.263,2.467c0,1.361-1.013,2.466-2.263,2.466C65.251,71.972,64.237,70.867,64.237,69.506z M66.5,71.232  c0.875,0,1.584-0.773,1.584-1.727s-0.709-1.727-1.584-1.727s-1.584,0.773-1.584,1.727S65.625,71.232,66.5,71.232z M66.177,65.631  l-1.293-0.705v-0.705l1.293,0.705v-1.409h0.646v1.409l1.293-0.705v0.705l-1.293,0.705v1.408H66.5h-0.323V65.631z M70.947,68.741  l-1.206-0.868l-1.12,0.705l-0.323-0.61l1.12-0.705l-0.087-1.572l0.56-0.353l0.087,1.572l1.12-0.704l0.323,0.61l-1.12,0.704  l1.206,0.868L70.947,68.741z M68.621,70.434l1.12,0.705l1.206-0.869l0.56,0.353l-1.206,0.868l1.12,0.705l-0.323,0.609l-1.12-0.704  l-0.087,1.573l-0.56-0.353l0.087-1.573l-1.12-0.704L68.621,70.434z"/></svg>