<svg xmlns="http://www.w3.org/2000/svg" xmlns:xlink="http://www.w3.org/1999/xlink" version="1.1" x="0px" y="0px" viewBox="0 0 100 125" enable-background="new 0 0 100 100" xml:space="preserve"><path fill-rule="evenodd" clip-rule="evenodd" fill="#000000" d="M70.993,49.986c0,2.611,8.662,5.224,7.984,7.764  c-0.676,2.531-9.482,0.492-10.83,2.811c-1.277,2.193,4.939,8.76,3.061,10.639c-1.898,1.898-8.488-4.305-10.707-3.022  c-2.297,1.328-0.231,10.121-2.736,10.79c-2.541,0.678-5.152-7.982-7.765-7.982c-2.584,0-5.168,8.668-7.683,8.004  c-2.507-0.662-0.445-9.447-2.745-10.77c-2.247-1.29-8.861,4.899-10.781,2.98c-1.899-1.9,4.303-8.491,3.02-10.712  c-1.328-2.297-10.12-0.231-10.788-2.737c-0.678-2.54,7.983-5.152,7.984-7.764c0-2.584-8.667-5.168-8.003-7.683  c0.669-2.533,9.469-0.496,10.811-2.816c1.283-2.218-4.921-8.808-3.023-10.706c1.899-1.899,8.49,4.304,10.71,3.021  c2.296-1.328,0.231-10.12,2.735-10.789c2.513-0.67,5.096,7.99,7.68,7.983c2.639-0.007,5.28-8.668,7.847-7.983  c2.505,0.668,0.44,9.461,2.736,10.789c2.22,1.283,8.81-4.92,10.708-3.021c1.878,1.877-4.34,8.441-3.064,10.633  c1.363,2.342,10.178,0.33,10.854,2.889C79.661,44.818,70.993,47.402,70.993,49.986z M50,30.986c-10.493,0-19,8.506-19,19  c0,10.493,8.507,19,19,19c10.493,0,19-8.507,19-19C68.999,39.493,60.492,30.986,50,30.986z M50,67.086  c-9.444,0-17.1-7.656-17.1-17.1c0-9.444,7.656-17.1,17.1-17.1c9.444,0,17.099,7.656,17.099,17.1  C67.099,59.43,59.443,67.086,50,67.086z"/></svg>