<?xml version="1.0" encoding="utf-8"?>
<!-- Generator: Adobe Illustrator 24.1.0, SVG Export Plug-In . SVG Version: 6.00 Build 0)  -->
<svg version="1.1" id="Layer_1" xmlns="http://www.w3.org/2000/svg" xmlns:xlink="http://www.w3.org/1999/xlink" x="0px" y="0px"
	 viewBox="0 0 58.1 58.1" style="enable-background:new 0 0 58.1 58.1;" xml:space="preserve">
<style type="text/css">
	.st0{fill-rule:evenodd;clip-rule:evenodd;fill:#FF8833;}
	.st1{fill-rule:evenodd;clip-rule:evenodd;fill:#FFFFFF;}
	.st2{fill-rule:evenodd;clip-rule:evenodd;fill:#FFB92F;}
</style>
<path class="st0" d="M50,29c0,2.6,8.7,5.2,8,7.8c-0.7,2.5-9.5,0.5-10.8,2.8c-1.3,2.2,4.9,8.8,3.1,10.6c-1.9,1.9-8.5-4.3-10.7-3
	c-2.3,1.3-0.2,10.1-2.7,10.8c-2.5,0.7-5.2-8-7.8-8c-2.6,0-5.2,8.7-7.7,8c-2.5-0.7-0.4-9.4-2.7-10.8c-2.2-1.3-8.9,4.9-10.8,3
	c-1.9-1.9,4.3-8.5,3-10.7c-1.3-2.3-10.1-0.2-10.8-2.7c-0.7-2.5,8-5.2,8-7.8c0-2.6-8.7-5.2-8-7.7c0.7-2.5,9.5-0.5,10.8-2.8
	c1.3-2.2-4.9-8.8-3-10.7c1.9-1.9,8.5,4.3,10.7,3C20.8,9.5,18.8,0.7,21.3,0c2.5-0.7,5.1,8,7.7,8c2.6,0,5.3-8.7,7.8-8
	c2.5,0.7,0.4,9.5,2.7,10.8c2.2,1.3,8.8-4.9,10.7-3c1.9,1.9-4.3,8.4-3.1,10.6c1.4,2.3,10.2,0.3,10.9,2.9C58.7,23.8,50,26.4,50,29z"/>
<path class="st1" d="M29,10c-10.5,0-19,8.5-19,19c0,10.5,8.5,19,19,19s19-8.5,19-19C48,18.5,39.5,10,29,10z"/>
<path class="st2" d="M29,46.1c-9.4,0-17.1-7.7-17.1-17.1S19.6,11.9,29,11.9S46.1,19.6,46.1,29S38.5,46.1,29,46.1z"/>
</svg>
