<svg xmlns="http://www.w3.org/2000/svg" xmlns:xlink="http://www.w3.org/1999/xlink" version="1.1" x="0px" y="0px" viewBox="0 0 100 125" enable-background="new 0 0 100 100" xml:space="preserve"><path fill-rule="evenodd" clip-rule="evenodd" fill="#000000" d="M77.418,69.133v0.051h-41c-5.523,0-10-4.478-10-10  c0-5.523,4.477-10,10-10c0.699,0,1.381,0.073,2.04,0.209c0.417-9.572,8.286-17.209,17.96-17.209c7.619,0,14.117,4.741,16.744,11.427  c1.043-0.269,2.129-0.427,3.256-0.427c7.18,0,13,5.82,13,13C89.418,63.025,84.129,68.621,77.418,69.133z M76.418,45.184  c-1.616,0-3.146,0.357-4.529,0.983c-1.783-6.889-8.023-11.983-15.471-11.983c-8.836,0-16,7.163-16,16c0,0.741,0,0,0,1  c-3,0-2.472,0-4,0c-4.418,0-8,3.581-8,8c0,4.418,3.582,8,8,8h41v-0.051c5.605-0.506,10-5.212,10-10.949  C87.418,50.108,82.493,45.184,76.418,45.184z M57.152,30.221c-2.714-5.056-7.659-8.839-13.764-9.804  c-10.365-1.638-20.095,5.436-21.733,15.801c-0.958,6.058,1.076,11.886,4.988,16.021c-0.675,0.949-1.215,1.998-1.594,3.124  c-3.034,0.592-7.672,3.136-8.888,1.463c-1.58-2.173,5.576-7.715,4.654-10.108c-0.953-2.477-9.959-1.81-10.229-4.388  c-0.273-2.615,8.69-3.843,9.098-6.423c0.404-2.553-7.754-6.458-6.706-8.838c1.056-2.397,9.43,0.989,11.118-1.094  c1.614-1.991-3.485-9.468-1.314-11.046c2.172-1.58,7.714,5.577,10.107,4.655c2.476-0.953,1.808-9.96,4.386-10.229  c2.587-0.27,3.786,8.688,6.34,9.084c2.608,0.405,6.568-7.738,8.998-6.66c2.369,1.052-1.043,9.414,1.018,11.084  c1.992,1.614,9.47-3.484,11.049-1.312c1.361,1.872-3.908,6.302-4.674,8.973C59.076,30.354,58.123,30.256,57.152,30.221z   M44.455,70.715l-2.133,5.641l3.478,0.932l-7.418,8.365l2.133-5.641l-3.478-0.932L44.455,70.715z M59.455,75.715l-2.133,5.641  l3.477,0.932l-7.418,8.365l2.133-5.641l-3.477-0.932L59.455,75.715z M74.455,70.715l-2.133,5.641l3.477,0.932l-7.418,8.365  l2.133-5.641l-3.477-0.932L74.455,70.715z"/></svg>