<?xml version="1.0" encoding="utf-8"?>
<!-- Generator: Adobe Illustrator 24.1.0, SVG Export Plug-In . SVG Version: 6.00 Build 0)  -->
<svg version="1.1" id="Layer_1" xmlns="http://www.w3.org/2000/svg" xmlns:xlink="http://www.w3.org/1999/xlink" x="0px" y="0px"
	 viewBox="0 0 67 56.6" style="enable-background:new 0 0 67 56.6;" xml:space="preserve">
<style type="text/css">
	.st0{fill-rule:evenodd;clip-rule:evenodd;fill:#E6E6E6;stroke:#A3A3A3;stroke-width:3;stroke-miterlimit:10;}
	
		.st1{fill-rule:evenodd;clip-rule:evenodd;fill:#FFB92F;stroke:#FFFFFF;stroke-width:1.2;stroke-linecap:round;stroke-linejoin:round;stroke-miterlimit:10;}
</style>
<path class="st0" d="M53,38.9L53,38.9L36,39l0,0l0,0h-9l0,0H12C6.5,39,2,34.5,2,29s4.5-10,10-10c0.7,0,1.4,0.1,2,0.2
	C14.4,9.6,22.3,2,32,2c7.6,0,14.1,4.7,16.7,11.4c1-0.3,2.1-0.4,3.3-0.4c7.2,0,13,5.8,13,13C65,32.8,59.7,38.4,53,38.9z"/>
<polygon class="st1" points="40,15.9 35.4,31 43,33.6 26.8,56 31.4,40.8 24,38.4 "/>
</svg>
