<svg xmlns="http://www.w3.org/2000/svg" xmlns:xlink="http://www.w3.org/1999/xlink" version="1.1" x="0px" y="0px" viewBox="0 0 100 125" enable-background="new 0 0 100 100" xml:space="preserve"><path fill-rule="evenodd" clip-rule="evenodd" fill="#000000" d="M69.5,60.215v0.051h-17l0,0l2-11l-11,11l0,0h-15  c-5.522,0-10-4.478-10-10c0-5.523,4.478-10,10-10c0.699,0,1.381,0.073,2.04,0.209c0.417-9.571,8.286-17.209,17.96-17.209  c7.619,0,14.117,4.741,16.744,11.427c1.043-0.269,2.13-0.427,3.256-0.427c7.18,0,13,5.82,13,13  C81.5,54.107,76.211,59.703,69.5,60.215z M36.536,61.797l-2.132,5.641l3.478,0.932l-7.418,8.365l2.132-5.641l-3.477-0.932  L36.536,61.797z M52.664,53.266l-2.924,7.552l4.769,1.247L44.336,73.266l2.925-7.553l-4.77-1.247L52.664,53.266z M66.536,61.797  l-2.132,5.641l3.478,0.932l-7.418,8.365l2.132-5.641l-3.477-0.932L66.536,61.797z"/></svg>