<?xml version="1.0" encoding="utf-8"?>
<!-- Generator: Adobe Illustrator 24.1.0, SVG Export Plug-In . SVG Version: 6.00 Build 0)  -->
<svg version="1.1" id="Layer_1" xmlns="http://www.w3.org/2000/svg" xmlns:xlink="http://www.w3.org/1999/xlink" x="0px" y="0px"
	 viewBox="0 0 67 56.6" style="enable-background:new 0 0 67 56.6;" xml:space="preserve">
<style type="text/css">
	.st0{fill-rule:evenodd;clip-rule:evenodd;fill:#E6E6E6;stroke:#A3A3A3;stroke-width:3;stroke-miterlimit:10;}
	.st1{fill-rule:evenodd;clip-rule:evenodd;fill:#FFB92F;}
</style>
<path class="st0" d="M53.1,39L53.1,39l-17,0.1l0,0l2-11l-11,11l0,0h-15c-5.5,0-10-4.5-10-10c0-5.5,4.5-10,10-10c0.7,0,1.4,0.1,2,0.2
	c0.4-9.6,8.3-17.2,18-17.2c7.6,0,14.1,4.7,16.7,11.4c1-0.3,2.1-0.4,3.3-0.4c7.2,0,13,5.8,13,13C65.1,32.9,59.8,38.5,53.1,39z"/>
<polygon class="st1" points="20.1,41.6 18,47.3 21.5,48.2 14,56.6 16.2,50.9 12.7,50 "/>
<polygon class="st1" points="35.2,33.9 32.3,41.4 37.1,42.7 26.9,53.9 29.8,46.3 25.1,45.1 "/>
<polygon class="st1" points="50.1,41.6 48,47.3 51.5,48.2 44,56.6 46.2,50.9 42.7,50 "/>
</svg>
