<?xml version="1.0" encoding="utf-8"?>
<!-- Generator: Adobe Illustrator 24.1.0, SVG Export Plug-In . SVG Version: 6.00 Build 0)  -->
<svg version="1.1" id="Layer_1" xmlns="http://www.w3.org/2000/svg" xmlns:xlink="http://www.w3.org/1999/xlink" x="0px" y="0px"
	 viewBox="0 0 70 70" style="enable-background:new 0 0 70 70;" xml:space="preserve">
<style type="text/css">
	.st0{fill-rule:evenodd;clip-rule:evenodd;fill:#A3A3A2;}
</style>
<path class="st0" d="M48.14,17.43c0-4.39-3.79-7.95-8.46-7.95c0-1.14,0-1.14,0-2.27c6,0,10.87,4.57,10.87,10.22
	s-4.87,10.22-10.87,10.22H2.24v-2.27h37.45C44.36,25.38,48.14,21.82,48.14,17.43z"/>
<path class="st0" d="M55.39,51.25c0,5.64-4.87,10.22-10.87,10.22c0-1.14,0-1.14,0-2.27c4.67,0,8.46-3.56,8.46-7.95
	s-3.79-7.95-8.46-7.95H7.07v-2.27h37.45C50.52,41.04,55.39,45.61,55.39,51.25z"/>
<path class="st0" d="M19.15,33.21H56.6c4.67,0,8.46-3.56,8.46-7.95s-3.79-7.95-8.46-7.95c0-1.14,0-1.14,0-2.27
	c6,0,10.87,4.57,10.87,10.22S62.6,35.48,56.6,35.48H19.15V33.21z"/>
</svg>
