<?xml version="1.0" encoding="utf-8"?>
<!-- Generator: Adobe Illustrator 24.1.0, SVG Export Plug-In . SVG Version: 6.00 Build 0)  -->
<svg version="1.1" id="Layer_1" xmlns="http://www.w3.org/2000/svg" xmlns:xlink="http://www.w3.org/1999/xlink" x="0px" y="0px"
	 viewBox="0 0 70 70" style="enable-background:new 0 0 70 70;" xml:space="preserve">
<style type="text/css">
	.st0{fill-rule:evenodd;clip-rule:evenodd;fill:#048FBF;}
	.st1{fill-rule:evenodd;clip-rule:evenodd;fill:#FFFFFF;}
	.st2{fill-rule:evenodd;clip-rule:evenodd;fill:#A3A3A2;}
</style>
<g>
	<polygon class="st0" points="10.91,6.03 11.22,5.41 12.47,6.14 12.47,4.47 13.1,4.89 12.99,6.56 14.14,7.28 13.83,7.91 12.68,7.18 
		11.43,8.01 10.8,7.7 12.05,6.76 	"/>
	<polygon class="st0" points="11.43,9.68 12.68,10.51 13.83,9.78 14.14,10.41 12.99,11.14 13.1,12.8 12.47,13.22 12.47,11.55 
		11.22,12.28 10.91,11.66 12.05,10.93 10.8,9.99 	"/>
	<polygon class="st0" points="15.7,11.45 16.01,11.45 16.43,11.45 16.43,12.91 17.78,13.64 17.78,14.37 16.43,13.64 16.43,15.1 
		15.7,15.1 15.7,13.64 14.35,14.37 14.35,13.64 15.7,12.91 	"/>
	<path class="st0" d="M13.72,8.85c0-1.46,1.04-2.6,2.4-2.6c1.25,0,2.4,1.15,2.4,2.6s-1.04,2.6-2.4,2.6S13.72,10.3,13.72,8.85z"/>
	<ellipse class="st1" cx="16.01" cy="8.85" rx="1.67" ry="1.77"/>
	<polygon class="st0" points="15.7,4.79 14.35,4.06 14.35,3.33 15.7,4.06 15.7,2.6 16.43,2.6 16.43,4.06 17.78,3.33 17.78,4.06 
		16.43,4.79 16.43,6.24 16.01,6.24 15.7,6.24 	"/>
	<polygon class="st0" points="20.7,8.01 19.45,7.18 18.3,7.91 17.89,7.28 19.14,6.56 19.03,4.89 19.55,4.47 19.66,6.14 20.8,5.41 
		21.22,6.03 19.97,6.76 21.22,7.7 	"/>
	<polygon class="st0" points="18.3,9.78 19.45,10.51 20.7,9.68 21.22,9.99 19.97,10.93 21.22,11.66 20.8,12.28 19.66,11.55 
		19.55,13.22 19.03,12.8 19.14,11.14 17.89,10.41 	"/>
</g>
<g>
	<polygon class="st0" points="13.2,21.56 13.82,20.32 16.17,21.68 16.42,18.71 17.54,19.33 17.41,22.43 19.77,23.79 19.02,24.9 
		16.67,23.54 14.19,25.28 12.95,24.53 15.55,22.92 	"/>
	<polygon class="st0" points="14.19,28.25 16.67,29.86 19.02,28.5 19.77,29.74 17.41,31.1 17.54,34.08 16.42,34.82 16.17,31.72 
		13.82,33.09 13.2,31.97 15.55,30.61 12.95,28.87 	"/>
	<polygon class="st0" points="22.87,31.48 23.49,31.48 24.23,31.48 24.23,34.2 26.96,35.57 26.96,36.93 24.23,35.57 24.23,38.29 
		22.87,38.29 22.87,35.57 20.14,36.93 20.14,35.57 22.87,34.2 	"/>
	<path class="st0" d="M18.78,26.76c0-2.6,2.11-4.71,4.71-4.71s4.84,2.11,4.84,4.71s-2.11,4.84-4.84,4.84
		C20.88,31.48,18.78,29.37,18.78,26.76z"/>
	<circle class="st1" cx="23.49" cy="26.76" r="3.35"/>
	<polygon class="st0" points="22.87,19.2 20.14,17.84 20.14,16.47 22.87,17.84 22.87,15.11 24.23,15.11 24.23,17.84 26.96,16.47 
		26.96,17.84 24.23,19.2 24.23,21.93 23.49,21.93 22.87,21.93 	"/>
	<polygon class="st0" points="32.91,25.28 30.43,23.54 27.95,24.9 27.33,23.79 29.69,22.43 29.56,19.33 30.68,18.71 30.93,21.68 
		33.28,20.32 33.9,21.56 31.55,22.92 34.15,24.53 	"/>
	<polygon class="st0" points="27.95,28.5 30.43,29.86 32.91,28.25 34.15,28.87 31.55,30.61 33.9,31.97 33.28,33.09 30.93,31.72 
		30.68,34.82 29.56,34.08 29.69,31.1 27.33,29.74 	"/>
</g>
<g>
	<polygon class="st0" points="41.8,15.5 42.17,14.76 43.66,15.63 43.66,13.64 44.4,14.14 44.28,16.12 45.64,16.99 45.27,17.73 
		43.91,16.87 42.42,17.86 41.68,17.49 43.16,16.37 	"/>
	<polygon class="st0" points="42.42,19.84 43.91,20.83 45.27,19.97 45.64,20.71 44.28,21.58 44.4,23.56 43.66,24.06 43.66,22.07 
		42.17,22.94 41.8,22.2 43.16,21.33 41.68,20.21 	"/>
	<polygon class="st0" points="47.5,21.95 47.87,21.95 48.37,21.95 48.37,23.68 49.98,24.55 49.98,25.42 48.37,24.55 48.37,26.29 
		47.5,26.29 47.5,24.55 45.89,25.42 45.89,24.55 47.5,23.68 	"/>
	<path class="st0" d="M45.15,18.85c0-1.74,1.24-3.1,2.85-3.1c1.49,0,2.85,1.36,2.85,3.1c0,1.74-1.24,3.1-2.85,3.1
		C46.39,21.95,45.15,20.59,45.15,18.85z"/>
	<ellipse class="st1" cx="47.87" cy="18.85" rx="1.98" ry="2.11"/>
	<polygon class="st0" points="47.5,14.01 45.89,13.15 45.89,12.28 47.5,13.15 47.5,11.41 48.37,11.41 48.37,13.15 49.98,12.28 
		49.98,13.15 48.37,14.01 48.37,15.75 47.87,15.75 47.5,15.75 	"/>
	<polygon class="st0" points="53.45,17.86 51.97,16.87 50.6,17.73 50.11,16.99 51.59,16.12 51.47,14.14 52.09,13.64 52.21,15.63 
		53.58,14.76 54.07,15.5 52.59,16.37 54.07,17.49 	"/>
	<polygon class="st0" points="50.6,19.97 51.97,20.83 53.45,19.84 54.07,20.21 52.59,21.33 54.07,22.2 53.58,22.94 52.21,22.07 
		52.09,24.06 51.47,23.56 51.59,21.58 50.11,20.71 	"/>
</g>
<path class="st2" d="M47.4,38.18c0-3.41-2.94-6.17-6.56-6.17c0-0.88,0-0.88,0-1.76c4.66,0,8.44,3.55,8.44,7.93s-3.78,7.93-8.44,7.93
	H11.78v-1.76h29.06C44.46,44.35,47.4,41.59,47.4,38.18z"/>
<path class="st2" d="M53.03,61.33c0,4.38-3.78,7.93-8.44,7.93c0-0.88,0-0.88,0-1.76c3.62,0,6.56-2.76,6.56-6.17
	c0-3.41-2.94-6.17-6.56-6.17H15.53V53.4h29.06C49.25,53.4,53.03,56.95,53.03,61.33z"/>
<path class="st2" d="M24.9,48.87h29.06c3.62,0,6.56-2.76,6.56-6.17s-2.94-6.17-6.56-6.17c0-0.88,0-0.88,0-1.76
	c4.66,0,8.44,3.55,8.44,7.93s-3.78,7.93-8.44,7.93H24.9V48.87z"/>
<g>
	<polygon class="st0" points="28.59,6.58 28.97,5.83 30.45,6.7 30.45,4.72 31.2,5.21 31.07,7.2 32.44,8.06 32.07,8.81 30.7,7.94 
		29.21,8.93 28.47,8.56 29.96,7.44 	"/>
	<polygon class="st0" points="29.21,10.91 30.7,11.91 32.07,11.04 32.44,11.78 31.07,12.65 31.2,14.63 30.45,15.13 30.45,13.15 
		28.97,14.01 28.59,13.27 29.96,12.4 28.47,11.29 	"/>
	<polygon class="st0" points="34.3,13.02 34.67,13.02 35.16,13.02 35.16,14.76 36.78,15.63 36.78,16.49 35.16,15.63 35.16,17.36 
		34.3,17.36 34.3,15.63 32.69,16.49 32.69,15.63 34.3,14.76 	"/>
	<path class="st0" d="M31.94,9.92c0-1.74,1.24-3.1,2.85-3.1c1.49,0,2.85,1.36,2.85,3.1s-1.24,3.1-2.85,3.1
		C33.18,13.02,31.94,11.66,31.94,9.92z"/>
	<ellipse class="st1" cx="34.67" cy="9.92" rx="1.98" ry="2.11"/>
	<polygon class="st0" points="34.3,5.09 32.69,4.22 32.69,3.35 34.3,4.22 34.3,2.48 35.16,2.48 35.16,4.22 36.78,3.35 36.78,4.22 
		35.16,5.09 35.16,6.82 34.67,6.82 34.3,6.82 	"/>
	<polygon class="st0" points="40.25,8.93 38.76,7.94 37.4,8.81 36.9,8.06 38.39,7.2 38.26,5.21 38.88,4.72 39.01,6.7 40.37,5.83 
		40.87,6.58 39.38,7.44 40.87,8.56 	"/>
	<polygon class="st0" points="37.4,11.04 38.76,11.91 40.25,10.91 40.87,11.29 39.38,12.4 40.87,13.27 40.37,14.01 39.01,13.15 
		38.88,15.13 38.26,14.63 38.39,12.65 36.9,11.78 	"/>
</g>
</svg>
