<?xml version="1.0" encoding="utf-8"?>
<!-- Generator: Adobe Illustrator 24.1.0, SVG Export Plug-In . SVG Version: 6.00 Build 0)  -->
<svg version="1.1" id="Layer_1" xmlns="http://www.w3.org/2000/svg" xmlns:xlink="http://www.w3.org/1999/xlink" x="0px" y="0px"
	 viewBox="0 0 84.5 84.5" style="enable-background:new 0 0 84.5 84.5;" xml:space="preserve">
<style type="text/css">
	.st0{fill-rule:evenodd;clip-rule:evenodd;fill:#E6E6E6;stroke:#A3A3A3;stroke-width:3;stroke-miterlimit:10;}
	.st1{fill-rule:evenodd;clip-rule:evenodd;fill:#FF8833;}
	.st2{fill-rule:evenodd;clip-rule:evenodd;fill:#FFB92F;}
</style>
<path class="st0" d="M70.3,69.3L70.3,69.3l-41,0.1c-4.8,0-8.9-3.4-9.8-8h4.8l0,0h10v0c0.2,0,0.3,0,0.5,0c5.8,0,10.5-4.7,10.5-10.5
	c0-5.8-4.7-10.5-10.5-10.5c-0.1,0-0.3,0-0.4,0c3.2-4.8,8.7-8,14.9-8c7.6,0,14.1,4.7,16.7,11.4c1-0.3,2.1-0.4,3.3-0.4
	c7.2,0,13,5.8,13,13C82.3,63.2,77,68.8,70.3,69.3z"/>
<path class="st1" d="M64.3,36.2c-2.1-2.3-4.6-4.2-7.6-5.3c-2.8-6.4-8.9-11-16.4-11.4c-8.8-0.5-16.4,5-19.1,13
	c-2.1,0-4.1,0.6-5.9,1.5c-2.3-1.7-5.1-3.3-4.6-4.8c0.8-2.5,9.5,0,11-2.2c1.4-2.1-4.4-9.1-2.4-10.9c2-1.8,8.2,4.8,10.5,3.6
	c2.4-1.2,0.8-10.1,3.3-10.6c2.5-0.5,4.6,8.3,7.2,8.4c2.6,0.1,5.8-8.4,8.3-7.5c2.5,0.8-0.1,9.5,2.1,10.9c2.1,1.4,9.1-4.4,10.9-2.4
	c1.8,2-4.8,8.2-3.7,10.4c1.2,2.4,10.1,0.9,10.7,3.5C68.9,33.7,66.6,34.9,64.3,36.2z"/>
<path class="st2" d="M23.3,32.5C26,25,33.8,20.3,41.9,21.6c5.3,0.8,9.7,4.1,12.1,8.4c-1.5-0.4-3.1-0.6-4.8-0.6
	c-6.7,0-12.6,3.3-16.3,8.4C30.8,34.7,27.1,32.9,23.3,32.5z"/>
<path class="st0" d="M21.3,35.4c6,0,10.5,3.6,11.7,7.2c0.6-0.1,1.2-0.2,1.8-0.2c4.7,0,8.5,3.8,8.5,8.5c0,4.7-3.8,8.5-8.5,8.5
	c-0.2,0-0.3,0-0.5,0v0h-5.6l0,0h-1.4l0,0h-3.1h-6.9h-0.4H9.3c-3.7,0-7-3.2-7-7s3.3-7,7-7c0.4,0,0.7,0,1.1,0.1
	C11.1,38.8,15.6,35.4,21.3,35.4z"/>
</svg>
