<?xml version="1.0" encoding="utf-8"?>
<!-- Generator: Adobe Illustrator 24.1.0, SVG Export Plug-In . SVG Version: 6.00 Build 0)  -->
<svg version="1.1" id="Layer_1" xmlns="http://www.w3.org/2000/svg" xmlns:xlink="http://www.w3.org/1999/xlink" x="0px" y="0px"
	 viewBox="0 0 70 70" style="enable-background:new 0 0 70 70;" xml:space="preserve">
<style type="text/css">
	.st0{fill-rule:evenodd;clip-rule:evenodd;fill:#E6E6E6;stroke:#A3A3A3;stroke-width:2;stroke-miterlimit:10;}
	.st1{fill-rule:evenodd;clip-rule:evenodd;fill:#FFB92F;}
	.st2{fill-rule:evenodd;clip-rule:evenodd;fill:#A3A3A3;}
	.st3{fill-rule:evenodd;clip-rule:evenodd;fill:#FF8833;}
</style>
<path class="st0" d="M63.2,44.4v-0.2c-3.2-3.9-7.9-3.2-7.9-3.2h-3.3c-0.4-0.5-0.7-0.8-0.7-0.8c-3.2-3.2-6.3-2.4-6.3-2.4
	c-1.3,0-2.4,1.1-2.4,2.4c0,1.3,1.6,2.4,2.4,2.4c4.1,1.1,3.9,5.5,3.9,5.5H23.8c-4.4,0-7.9-3.5-7.9-7.9c0-4.4,3.5-7.9,7.9-7.9
	c0.6,0,1.1,0.1,1.6,0.2C25.7,25,31.9,19,39.6,19c6,0,11.1,3.7,13.2,9c0.8-0.2,1.7-0.3,2.6-0.3c5.7,0,10.3,4.6,10.3,10.3
	C65.6,40.4,64.7,42.7,63.2,44.4z"/>
<path class="st1" d="M29,11.2c4,0.6,7.3,3,9.3,6.2C31,18,25,23.6,24,30.8c-0.1,0-0.1,0-0.2,0c-2.6,0-5,1.1-6.7,2.8
	c-2.7-2.9-4.1-7-3.4-11.2C14.8,15.1,21.7,10.1,29,11.2z"/>
<path class="st2" d="M52.5,47.3c0-2.3-1.8-4.1-4-4.1c0-0.6,0-0.6,0-1.2c2.8,0,5.2,2.4,5.2,5.3s-2.3,5.3-5.2,5.3H30.8v-1.2h17.7
	C50.7,51.4,52.5,49.6,52.5,47.3z"/>
<path class="st2" d="M56,61.4c0,2.9-2.3,5.3-5.2,5.3c0-0.6,0-0.6,0-1.2c2.2,0,4-1.8,4-4.1s-1.8-4.1-4-4.1H33.1v-1.2h17.7
	C53.7,56.1,56,58.5,56,61.4z"/>
<path class="st2" d="M38.8,53.8h17.7c2.2,0,4-1.8,4-4.1s-1.8-4.1-4-4.1c0-0.6,0-0.6,0-1.2c2.8,0,5.2,2.4,5.2,5.3s-2.3,5.3-5.2,5.3
	H38.8V53.8z"/>
<path class="st3" d="M40.1,17.4c-2.1-4-6-7-10.9-7.7C21.1,8.4,13.4,14,12.1,22.1c-0.8,4.8,0.8,9.4,3.9,12.7c-0.5,0.7-1,1.6-1.3,2.5
	c-2.4,0.5-6.1,2.5-7,1.2c-1.2-1.7,4.4-6.1,3.7-8c-0.8-2-7.9-1.4-8.1-3.5c-0.2-2.1,6.9-3,7.2-5.1c0.3-2-6.1-5.1-5.3-7
	C6.1,13,12.7,15.7,14,14c1.3-1.6-2.8-7.5-1-8.7c1.7-1.2,6.1,4.4,8,3.7c2-0.8,1.4-7.9,3.5-8.1c2-0.2,3,6.9,5,7.2
	c2.1,0.3,5.2-6.1,7.1-5.3c1.9,0.8-0.8,7.4,0.8,8.8c1.6,1.3,7.5-2.8,8.7-1c1.1,1.5-3.1,5-3.7,7.1C41.7,17.5,40.9,17.4,40.1,17.4z"/>
</svg>
