<svg xmlns="http://www.w3.org/2000/svg" xmlns:xlink="http://www.w3.org/1999/xlink" version="1.1" x="0px" y="0px" viewBox="0 0 100 125" enable-background="new 0 0 100 100" xml:space="preserve"><path fill-rule="evenodd" clip-rule="evenodd" fill="#000000" d="M86.418,59.698v-0.28c-4-5-10-4-10-4h-4.17  c-0.469-0.635-0.83-1-0.83-1c-4-4-8-3-8-3c-1.656,0-3,1.343-3,3c0,1.656,2,3.031,3,3c5.25,1.344,5,7,5,7h-32  c-5.523,0-10-4.478-10-10c0-5.524,4.477-10,10-10c0.699,0,1.381,0.073,2.04,0.209c0.417-9.571,8.286-17.209,17.96-17.209  c7.619,0,14.117,4.741,16.744,11.428c1.043-0.27,2.129-0.428,3.256-0.428c7.18,0,13,5.82,13,13  C89.418,54.57,88.285,57.45,86.418,59.698z M43.062,17.625c5.099,0.806,9.298,3.802,11.814,7.871  c-9.325,0.713-16.843,7.812-18.214,16.935c-0.083-0.002-0.162-0.013-0.245-0.013c-3.316,0-6.317,1.345-8.489,3.52  c-3.414-3.687-5.177-8.827-4.332-14.174C25.064,22.489,33.779,16.159,43.062,17.625z M57.152,25.455  c-2.714-5.056-7.658-8.839-13.764-9.804c-10.365-1.639-20.095,5.436-21.733,15.801c-0.958,6.058,1.076,11.886,4.988,16.021  c-0.675,0.949-1.215,1.998-1.594,3.125c-3.034,0.591-7.672,3.135-8.888,1.462c-1.58-2.173,5.576-7.715,4.654-10.109  c-0.953-2.477-9.959-1.81-10.229-4.388c-0.273-2.615,8.69-3.843,9.098-6.423c0.404-2.553-7.754-6.458-6.706-8.838  c1.056-2.397,9.43,0.988,11.118-1.095c1.614-1.99-3.485-9.468-1.314-11.046c2.172-1.579,7.714,5.576,10.107,4.655  c2.475-0.952,1.808-9.96,4.386-10.229c2.587-0.271,3.786,8.688,6.34,9.084c2.608,0.405,6.568-7.737,8.998-6.66  c2.369,1.052-1.043,9.414,1.018,11.084c1.992,1.614,9.47-3.484,11.049-1.312c1.361,1.872-3.908,6.302-4.674,8.973  C59.077,25.587,58.123,25.49,57.152,25.455z M70.418,62.418c0-3.866-3.134-7-7-7c0-1,0-1,0-2c4.971,0,9,4.029,9,9s-4.029,9-9,9h-31  v-2h31C67.284,69.418,70.418,66.284,70.418,62.418z M76.418,86.418c0,4.971-4.029,9-9,9c0-1,0-1,0-2c3.866,0,7-3.134,7-7  s-3.134-7-7-7h-31v-2h31C72.389,77.418,76.418,81.447,76.418,86.418z M46.418,73.418h31c3.866,0,7-3.134,7-7s-3.134-7-7-7  c0-1,0-1,0-2c4.971,0,9,4.029,9,9s-4.029,9-9,9h-31V73.418z"/></svg>