<?xml version="1.0" encoding="utf-8"?>
<!-- Generator: Adobe Illustrator 24.1.0, SVG Export Plug-In . SVG Version: 6.00 Build 0)  -->
<svg version="1.1" id="Layer_1" xmlns="http://www.w3.org/2000/svg" xmlns:xlink="http://www.w3.org/1999/xlink" x="0px" y="0px"
	 viewBox="0 0 70.4 70.4" style="enable-background:new 0 0 70.4 70.4;" xml:space="preserve">
<style type="text/css">
	.st0{fill-rule:evenodd;clip-rule:evenodd;fill:#E6E6E6;stroke:#A3A3A3;stroke-width:3;stroke-miterlimit:10;}
	.st1{fill-rule:evenodd;clip-rule:evenodd;fill:#15AADC;}
</style>
<path class="st0" d="M54.5,46.3L54.5,46.3l-41,0.1c-5.5,0-10-4.5-10-10c0-5.5,4.5-10,10-10c0.7,0,1.4,0.1,2,0.2
	c0.4-9.6,8.3-17.2,18-17.2c7.6,0,14.1,4.7,16.7,11.4c1-0.3,2.1-0.4,3.3-0.4c7.2,0,13,5.8,13,13C66.5,40.1,61.2,45.7,54.5,46.3z"/>
<path class="st1" d="M14.8,48.9c0.2,3.6,0.4,5.3-0.4,6.7c-0.8,1.4-2.7,1.9-4.1,1.1c-1.4-0.8-1.9-2.7-1.1-4.1
	C10,51.2,11.5,50.5,14.8,48.9z"/>
<path class="st1" d="M21.3,55.7c0.2,2.9,0.3,4.2-0.3,5.4s-2.1,1.5-3.3,0.9c-1.1-0.7-1.5-2.1-0.9-3.3C17.5,57.5,18.7,57,21.3,55.7z"
	/>
<path class="st1" d="M30.8,48.9c0.2,3.6,0.4,5.3-0.4,6.7c-0.8,1.4-2.7,1.9-4.1,1.1c-1.4-0.8-1.9-2.7-1.1-4.1
	C26,51.2,27.5,50.5,30.8,48.9z"/>
<path class="st1" d="M37.5,56.3c0.2,3.2,0.4,4.7-0.4,6c-0.7,1.3-2.4,1.7-3.7,1c-1.3-0.7-1.7-2.4-1-3.7
	C33.2,58.3,34.6,57.7,37.5,56.3z"/>
<path class="st1" d="M47.8,48.9c0.2,3.6,0.4,5.3-0.4,6.7c-0.8,1.4-2.7,1.9-4.1,1.1c-1.4-0.8-1.9-2.7-1.1-4.1
	C43,51.2,44.5,50.5,47.8,48.9z"/>
<path class="st1" d="M56.8,50.9c0.2,3.6,0.4,5.3-0.4,6.7c-0.8,1.4-2.7,1.9-4.1,1.1c-1.4-0.8-1.9-2.7-1.1-4.1
	C52,53.2,53.5,52.5,56.8,50.9z"/>
</svg>
