<?xml version="1.0" encoding="utf-8"?>
<!-- Generator: Adobe Illustrator 24.1.0, SVG Export Plug-In . SVG Version: 6.00 Build 0)  -->
<svg version="1.1" id="Layer_1" xmlns="http://www.w3.org/2000/svg" xmlns:xlink="http://www.w3.org/1999/xlink" x="0px" y="0px"
	 viewBox="0 0 68.3 68.3" style="enable-background:new 0 0 68.3 68.3;" xml:space="preserve">
<style type="text/css">
	.st0{fill-rule:evenodd;clip-rule:evenodd;fill:#E6E6E6;stroke:#A3A3A3;stroke-width:3;stroke-miterlimit:10;}
	.st1{fill-rule:evenodd;clip-rule:evenodd;fill:#008FBF;}
	.st2{fill-rule:evenodd;clip-rule:evenodd;fill:#FFFFFF;}
</style>
<path class="st0" d="M53.8,41.4L53.8,41.4l-41,0.1c-5.5,0-10-4.5-10-10c0-5.5,4.5-10,10-10c0.7,0,1.4,0.1,2,0.2
	c0.4-9.6,8.3-17.2,18-17.2c7.6,0,14.1,4.7,16.7,11.4c1-0.3,2.1-0.4,3.3-0.4c7.2,0,13,5.8,13,13C65.8,35.3,60.5,40.9,53.8,41.4z"/>
<polygon class="st1" points="12.9,57 13.2,56.4 14.4,57.1 14.4,55.5 15,55.9 14.9,57.5 16,58.2 15.7,58.8 14.6,58.1 13.4,58.9 
	12.8,58.6 14,57.7 "/>
<polygon class="st1" points="13.4,60.5 14.6,61.3 15.7,60.6 16,61.2 14.9,61.9 15,63.5 14.4,63.9 14.4,62.3 13.2,63 12.9,62.4 
	14,61.7 12.8,60.8 "/>
<polygon class="st1" points="17.5,62.2 17.8,62.2 18.2,62.2 18.2,63.6 19.5,64.3 19.5,65 18.2,64.3 18.2,65.7 17.5,65.7 17.5,64.3 
	16.2,65 16.2,64.3 17.5,63.6 "/>
<path class="st1" d="M15.6,59.7c0-1.4,1-2.5,2.3-2.5c1.2,0,2.3,1.1,2.3,2.5c0,1.4-1,2.5-2.3,2.5C16.6,62.2,15.6,61.1,15.6,59.7z"/>
<ellipse class="st2" cx="17.8" cy="59.7" rx="1.6" ry="1.7"/>
<polygon class="st1" points="17.5,55.8 16.2,55.1 16.2,54.4 17.5,55.1 17.5,53.7 18.2,53.7 18.2,55.1 19.5,54.4 19.5,55.1 
	18.2,55.8 18.2,57.2 17.8,57.2 17.5,57.2 "/>
<polygon class="st1" points="22.3,58.9 21.1,58.1 20,58.8 19.6,58.2 20.8,57.5 20.7,55.9 21.2,55.5 21.3,57.1 22.4,56.4 22.8,57 
	21.6,57.7 22.8,58.6 "/>
<polygon class="st1" points="20,60.6 21.1,61.3 22.3,60.5 22.8,60.8 21.6,61.7 22.8,62.4 22.4,63 21.3,62.3 21.2,63.9 20.7,63.5 
	20.8,61.9 19.6,61.2 "/>
<polygon class="st1" points="26,49 26.5,48 28.4,49.1 28.6,46.7 29.5,47.2 29.4,49.7 31.3,50.8 30.7,51.7 28.8,50.6 26.8,52 
	25.8,51.4 27.9,50.1 "/>
<polygon class="st1" points="26.8,54.4 28.8,55.7 30.7,54.6 31.3,55.6 29.4,56.7 29.5,59.1 28.6,59.7 28.4,57.2 26.5,58.3 26,57.4 
	27.9,56.3 25.8,54.9 "/>
<polygon class="st1" points="33.8,57 34.3,57 34.9,57 34.9,59.2 37.1,60.3 37.1,61.4 34.9,60.3 34.9,62.5 33.8,62.5 33.8,60.3 
	31.6,61.4 31.6,60.3 33.8,59.2 "/>
<path class="st1" d="M30.5,53.2c0-2.1,1.7-3.8,3.8-3.8c2.1,0,3.9,1.7,3.9,3.8c0,2.1-1.7,3.9-3.9,3.9C32.2,57,30.5,55.3,30.5,53.2z"
	/>
<circle class="st2" cx="34.3" cy="53.2" r="2.7"/>
<polygon class="st1" points="33.8,47.1 31.6,46 31.6,44.9 33.8,46 33.8,43.8 34.9,43.8 34.9,46 37.1,44.9 37.1,46 34.9,47.1 
	34.9,49.3 34.3,49.3 33.8,49.3 "/>
<polygon class="st1" points="41.9,52 39.9,50.6 37.9,51.7 37.4,50.8 39.3,49.7 39.2,47.2 40.1,46.7 40.3,49.1 42.2,48 42.7,49 
	40.8,50.1 42.9,51.4 "/>
<polygon class="st1" points="37.9,54.6 39.9,55.7 41.9,54.4 42.9,54.9 40.8,56.3 42.7,57.4 42.2,58.3 40.3,57.2 40.1,59.7 
	39.2,59.1 39.3,56.7 37.4,55.6 "/>
<polygon class="st1" points="45.9,57 46.2,56.4 47.4,57.1 47.4,55.5 48,55.9 47.9,57.5 49,58.2 48.7,58.8 47.6,58.1 46.4,58.9 
	45.8,58.6 47,57.7 "/>
<polygon class="st1" points="46.4,60.5 47.6,61.3 48.7,60.6 49,61.2 47.9,61.9 48,63.5 47.4,63.9 47.4,62.3 46.2,63 45.9,62.4 
	47,61.7 45.8,60.8 "/>
<polygon class="st1" points="50.5,62.2 50.8,62.2 51.2,62.2 51.2,63.6 52.5,64.3 52.5,65 51.2,64.3 51.2,65.7 50.5,65.7 50.5,64.3 
	49.2,65 49.2,64.3 50.5,63.6 "/>
<path class="st1" d="M48.6,59.7c0-1.4,1-2.5,2.3-2.5c1.2,0,2.3,1.1,2.3,2.5c0,1.4-1,2.5-2.3,2.5C49.6,62.2,48.6,61.1,48.6,59.7z"/>
<ellipse class="st2" cx="50.8" cy="59.7" rx="1.6" ry="1.7"/>
<polygon class="st1" points="50.5,55.8 49.2,55.1 49.2,54.4 50.5,55.1 50.5,53.7 51.2,53.7 51.2,55.1 52.5,54.4 52.5,55.1 
	51.2,55.8 51.2,57.2 50.8,57.2 50.5,57.2 "/>
<polygon class="st1" points="55.3,58.9 54.1,58.1 53,58.8 52.6,58.2 53.8,57.5 53.7,55.9 54.2,55.5 54.3,57.1 55.4,56.4 55.8,57 
	54.6,57.7 55.8,58.6 "/>
<polygon class="st1" points="53,60.6 54.1,61.3 55.3,60.5 55.8,60.8 54.6,61.7 55.8,62.4 55.4,63 54.3,62.3 54.2,63.9 53.7,63.5 
	53.8,61.9 52.6,61.2 "/>
</svg>
