<?xml version="1.0" encoding="utf-8"?>
<!-- Generator: Adobe Illustrator 24.1.0, SVG Export Plug-In . SVG Version: 6.00 Build 0)  -->
<svg version="1.1" id="Layer_1" xmlns="http://www.w3.org/2000/svg" xmlns:xlink="http://www.w3.org/1999/xlink" x="0px" y="0px"
	 viewBox="0 0 82.3 83.8" style="enable-background:new 0 0 82.3 83.8;" xml:space="preserve">
<style type="text/css">
	.st0{fill-rule:evenodd;clip-rule:evenodd;fill:#FFFFFF;}
	.st1{fill-rule:evenodd;clip-rule:evenodd;fill:#FFB92F;}
	.st2{fill-rule:evenodd;clip-rule:evenodd;fill:#FF8833;}
	.st3{fill-rule:evenodd;clip-rule:evenodd;fill:#E6E6E6;stroke:#A3A3A3;stroke-width:3;stroke-miterlimit:10;}
	
		.st4{fill-rule:evenodd;clip-rule:evenodd;fill:#FFB92F;stroke:#FFFFFF;stroke-width:1.2;stroke-linecap:round;stroke-linejoin:round;stroke-miterlimit:10;}
</style>
<path class="st0" d="M30.6,12.3c-10.5,0-19,8.5-19,19s8.5,19,19,19s19-8.5,19-19C49.6,20.9,41.1,12.3,30.6,12.3z"/>
<path class="st1" d="M30.6,48.4c-9.4,0-17.1-7.7-17.1-17.1s7.7-17.1,17.1-17.1s17.1,7.7,17.1,17.1S40,48.4,30.6,48.4z"/>
<path class="st2" d="M47.4,22.4c-2.7-5.1-7.7-8.8-13.8-9.8C23.2,10.9,13.5,18,11.9,28.4c-1,6.1,1.1,11.9,5,16
	c-0.7,0.9-1.2,2-1.6,3.1c-3,0.6-7.7,3.1-8.9,1.5C4.8,46.8,12,41.2,11,38.9c-1-2.5-10-1.8-10.2-4.4c-0.3-2.6,8.7-3.8,9.1-6.4
	c0.4-2.6-7.8-6.5-6.7-8.8c1.1-2.4,9.4,1,11.1-1.1c1.6-2-3.5-9.5-1.3-11c2.2-1.6,7.7,5.6,10.1,4.7c2.5-1,1.8-10,4.4-10.2
	c2.6-0.3,3.8,8.7,6.3,9.1c2.6,0.4,6.6-7.7,9-6.7c2.4,1.1-1,9.4,1,11.1c2,1.6,9.5-3.5,11-1.3c1.4,1.9-3.9,6.3-4.7,9
	C49.3,22.5,48.3,22.4,47.4,22.4z"/>
<path class="st3" d="M68.4,62.8L68.4,62.8l-17,0.1l0,0l0,0h-9l0,0h-15c-5.5,0-10-4.5-10-10s4.5-10,10-10c0.7,0,1.4,0.1,2,0.2
	c0.4-9.6,8.3-17.2,18-17.2c7.6,0,14.1,4.7,16.7,11.4c1-0.3,2.1-0.4,3.3-0.4c7.2,0,13,5.8,13,13C80.4,56.7,75.1,62.3,68.4,62.8z"/>
<polygon class="st4" points="55.4,39.9 50.8,54.9 58.4,57.5 42.3,79.9 46.9,64.7 39.4,62.3 "/>
</svg>
