<?xml version="1.0" encoding="utf-8"?>
<!-- Generator: Adobe Illustrator 24.1.0, SVG Export Plug-In . SVG Version: 6.00 Build 0)  -->
<svg version="1.1" id="Layer_1" xmlns="http://www.w3.org/2000/svg" xmlns:xlink="http://www.w3.org/1999/xlink" x="0px" y="0px"
	 viewBox="0 0 80.7 80" style="enable-background:new 0 0 80.7 80;" xml:space="preserve">
<style type="text/css">
	.st0{fill-rule:evenodd;clip-rule:evenodd;fill:#FFFFFF;}
	.st1{fill-rule:evenodd;clip-rule:evenodd;fill:#FFB92F;}
	.st2{fill-rule:evenodd;clip-rule:evenodd;fill:#E6E6E6;stroke:#A3A3A3;stroke-width:3;stroke-miterlimit:10;}
	.st3{fill-rule:evenodd;clip-rule:evenodd;fill:#FF8833;}
	.st4{fill-rule:evenodd;clip-rule:evenodd;fill:#15AADC;}
</style>
<path class="st0" d="M29.8,11.9c-10.5,0-19,8.5-19,19c0,10.5,8.5,19,19,19s19-8.5,19-19C48.8,20.4,40.3,11.9,29.8,11.9z"/>
<path class="st1" d="M29.8,48c-9.4,0-17.1-7.7-17.1-17.1s7.7-17.1,17.1-17.1s17.1,7.7,17.1,17.1S39.2,48,29.8,48z"/>
<path class="st2" d="M66.8,60.8L66.8,60.8l-41,0.1c-5.5,0-10-4.5-10-10c0-5.5,4.5-10,10-10c0.7,0,1.4,0.1,2,0.2
	c0.4-9.6,8.3-17.2,18-17.2c7.6,0,14.1,4.7,16.7,11.4c1-0.3,2.1-0.4,3.3-0.4c7.2,0,13,5.8,13,13C78.8,54.7,73.5,60.3,66.8,60.8z"/>
<path class="st3" d="M46.6,21.9c-2.7-5.1-7.7-8.8-13.8-9.8c-10.4-1.6-20.1,5.4-21.7,15.8c-1,6.1,1.1,11.9,5,16
	c-0.7,0.9-1.2,2-1.6,3.1c-3,0.6-7.7,3.1-8.9,1.5c-1.6-2.2,5.6-7.7,4.7-10.1c-1-2.5-10-1.8-10.2-4.4c-0.3-2.6,8.7-3.8,9.1-6.4
	c0.4-2.6-7.8-6.5-6.7-8.8c1.1-2.4,9.4,1,11.1-1.1c1.6-2-3.5-9.5-1.3-11c2.2-1.6,7.7,5.6,10.1,4.7c2.5-1,1.8-10,4.4-10.2
	c2.6-0.3,3.8,8.7,6.3,9.1c2.6,0.4,6.6-7.7,9-6.7c2.4,1.1-1,9.4,1,11.1c2,1.6,9.5-3.5,11-1.3c1.4,1.9-3.9,6.3-4.7,9
	C48.5,22,47.5,21.9,46.6,21.9z"/>
<path class="st4" d="M27.1,63.4c0.2,3.6,0.4,5.3-0.4,6.7c-0.8,1.4-2.7,1.9-4.1,1.1c-1.4-0.8-1.9-2.7-1.1-4.1
	C22.3,65.7,23.9,65,27.1,63.4z"/>
<path class="st4" d="M33.6,70.2c0.2,2.9,0.3,4.2-0.3,5.4s-2.1,1.5-3.3,0.9c-1.1-0.7-1.5-2.1-0.9-3.3C29.8,72,31.1,71.5,33.6,70.2z"
	/>
<path class="st4" d="M43.1,63.4c0.2,3.6,0.4,5.3-0.4,6.7c-0.8,1.4-2.7,1.9-4.1,1.1c-1.4-0.8-1.9-2.7-1.1-4.1
	C38.3,65.7,39.9,65,43.1,63.4z"/>
<path class="st4" d="M49.9,70.8c0.2,3.2,0.4,4.7-0.4,6c-0.7,1.3-2.4,1.7-3.7,1c-1.3-0.7-1.7-2.4-1-3.7C45.6,72.9,47,72.3,49.9,70.8z
	"/>
<path class="st4" d="M60.1,63.4c0.2,3.6,0.4,5.3-0.4,6.7c-0.8,1.4-2.7,1.9-4.1,1.1c-1.4-0.8-1.9-2.7-1.1-4.1
	C55.3,65.7,56.9,65,60.1,63.4z"/>
<path class="st4" d="M69.1,65.4c0.2,3.6,0.4,5.3-0.4,6.7c-0.8,1.4-2.7,1.9-4.1,1.1c-1.4-0.8-1.9-2.7-1.1-4.1
	C64.3,67.7,65.9,67,69.1,65.4z"/>
</svg>
